<?xml version="1.0" standalone="no"?>
<!DOCTYPE svg PUBLIC "-//W3C//DTD SVG 20010904//EN"
 "http://www.w3.org/TR/2001/REC-SVG-20010904/DTD/svg10.dtd">
<svg version="1.0" xmlns="http://www.w3.org/2000/svg"
 width="264.000000pt" height="78.000000pt" viewBox="0 0 264.000000 78.000000"
 preserveAspectRatio="xMidYMid meet">
<g transform="translate(0.000000,78.000000) scale(0.100000,-0.100000)"
fill="#000000" stroke="none">
<path d="M200 672 c0 -30 59 -364 74 -420 16 -59 39 -100 62 -109 21 -8 51 23
65 66 7 20 43 108 80 197 38 89 69 166 69 173 0 20 -29 12 -46 -13 -8 -14 -49
-106 -89 -206 l-73 -181 -15 48 c-9 26 -20 71 -26 98 -12 54 -61 343 -61 357
0 4 -9 8 -20 8 -12 0 -20 -7 -20 -18z"/>
<path d="M1041 669 c-52 -56 -75 -144 -73 -280 l1 -85 -49 -49 c-27 -27 -47
-52 -44 -57 11 -17 41 -7 69 22 33 35 45 38 45 11 0 -23 42 -68 76 -81 52 -20
134 32 134 84 0 24 -10 20 -46 -19 -17 -19 -41 -35 -52 -35 -30 0 -61 30 -76
74 -13 37 -12 42 15 84 43 68 69 158 70 239 1 105 -25 140 -70 92z m24 -154
c-3 -22 -19 -67 -34 -100 l-28 -60 4 60 c5 73 20 146 42 200 l16 40 3 -50 c2
-27 1 -68 -3 -90z"/>
<path d="M1946 578 c-3 -13 -8 -49 -11 -80 -6 -56 -7 -57 -43 -63 -53 -9 -70
-21 -54 -37 9 -9 22 -10 52 -1 l40 10 0 -96 c0 -106 11 -139 53 -159 64 -31
183 46 211 136 11 33 -20 29 -38 -7 -21 -40 -79 -88 -117 -96 -27 -6 -36 -3
-51 15 -15 18 -18 41 -18 120 l0 98 31 6 c17 3 44 6 60 6 19 0 29 5 29 15 0
12 -13 15 -58 15 l-57 0 3 45 c3 39 6 44 18 34 28 -23 35 5 8 34 -30 33 -52
35 -58 5z"/>
<path d="M1225 427 c4 -24 10 -95 13 -158 6 -93 10 -114 23 -117 12 -2 20 13
32 60 8 35 22 79 30 98 22 50 76 122 87 115 6 -4 10 -65 10 -141 0 -112 3
 -136 16 -141 18 -7 55 26 80 72 24 46 9 58 -24 18 l-27 -31 0 106 c0 123 -11
152 -54 152 -34 0 -83 -50 -111 -112 l-17 -39 -7 38 c-3 21 -6 52 -6 69 0 32
 -15 54 -38 54 -10 0 -12 -10 -7 -43z m52 -159 c-3 -8 -6 -5 -6 6 -1 11 2 17 5
13 3 -3 4 -12 1 -19z"/>
<path d="M1659 447 c-18 -12 -47 -42 -63 -65 -25 -35 -31 -55 -34 -112 -4 -67
 -3 -71 27 -101 28 -28 37 -31 72 -26 56 7 83 28 113 88 44 88 29 179 -36 219
 -41 25 -38 25 -79 -3z m69 -39 c31 -34 36 -70 18 -132 -24 -83 -83 -120 -128
 -79 -23 20 -24 80 -2 131 14 34 70 102 84 102 4 0 16 -10 28 -22z"/>
<path d="M2306 430 c-49 -45 -84 -117 -93 -190 -5 -43 -3 -51 21 -75 45 -45
94 -22 146 68 29 50 33 51 44 5 7 -33 53 -88 72 -88 16 0 19 26 3 35 -14 10
 -28 46 -55 150 -17 67 -30 96 -49 113 -14 12 -30 22 -36 22 -5 0 -29 -18 -53
 -40z m77 -27 c16 -31 11 -56 -21 -119 -23 -45 -81 -106 -94 -98 -31 19 14 166
66 219 31 31 32 31 49 -2z"/>
<path d="M650 440 c-28 -28 -40 -62 -44 -129 -4 -49 -7 -58 -30 -69 -31 -15
 -26 -32 9 -32 14 0 29 -8 35 -20 17 -31 67 -53 107 -45 42 8 123 82 123 113 0
31 -23 27 -43 -7 -20 -34 -75 -71 -105 -71 -12 0 -29 12 -39 27 -17 25 -17 26
7 42 41 26 130 117 130 133 0 9 -13 30 -29 47 -36 38 -89 43 -121 11z m94 -42
c8 -14 5 -23 -19 -49 -17 -17 -42 -40 -57 -50 l-27 -20 6 38 c3 21 12 53 21
71 12 26 20 32 40 30 14 -2 30 -11 36 -20z"/>
</g>
</svg>
